<svg width="30" height="30" viewBox="0 0 30 30" fill="none" xmlns="http://www.w3.org/2000/svg">
<rect opacity="0.5" width="30" height="30" rx="10" fill="#DDDDDD"/>
<path d="M15.5745 11.8524L17.4752 9.89792C17.5623 9.80828 17.6314 9.70187 17.6786 9.58475C17.7257 9.46762 17.75 9.3421 17.75 9.21533C17.75 8.95931 17.6511 8.71378 17.4752 8.53274C17.388 8.4431 17.2846 8.372 17.1708 8.32348C17.0569 8.27497 16.9349 8.25 16.8117 8.25C16.6885 8.25 16.5664 8.27497 16.4526 8.32348C16.3387 8.372 16.2353 8.4431 16.1482 8.53274L10.5253 14.3174C10.438 14.407 10.3688 14.5134 10.3216 14.6305C10.2743 14.7476 10.25 14.8732 10.25 15C10.25 15.1268 10.2743 15.2524 10.3216 15.3695C10.3688 15.4866 10.438 15.593 10.5253 15.6826L16.1482 21.4673C16.2353 21.5569 16.3387 21.628 16.4526 21.6765C16.5664 21.725 16.6885 21.75 16.8117 21.75C16.9349 21.75 17.0569 21.725 17.1708 21.6765C17.2846 21.628 17.388 21.5569 17.4752 21.4673C17.5623 21.3776 17.6314 21.2712 17.6786 21.1541C17.7257 21.037 17.75 20.9114 17.75 20.7847C17.75 20.6579 17.7257 20.5324 17.6786 20.4152C17.6314 20.2981 17.5623 20.1917 17.4752 20.1021L15.5732 18.1463L12.4994 15L15.5745 11.8524Z" fill="#1FA1DB"/>
</svg>
