<svg width="37" height="37" viewBox="0 0 37 37" fill="none" xmlns="http://www.w3.org/2000/svg">
<path d="M31.955 29.495C31.955 30.035 31.835 30.59 31.58 31.13C31.325 31.67 30.995 32.18 30.56 32.66C29.825 33.47 29.015 34.055 28.1 34.43C27.2 34.805 26.225 35 25.175 35C23.645 35 22.01 34.64 20.285 33.905C18.56 33.17 16.835 32.18 15.125 30.935C13.4 29.675 11.765 28.28 10.205 26.735C8.66 25.175 7.265 23.54 6.02 21.83C4.79 20.12 3.8 18.41 3.08 16.715C2.36 15.005 2 13.37 2 11.81C2 10.79 2.18 9.815 2.54 8.915C2.9 8 3.47 7.16 4.265 6.41C5.225 5.465 6.275 5 7.385 5C7.805 5 8.225 5.09 8.6 5.27C8.99 5.45 9.335 5.72 9.605 6.11L13.085 11.015C13.355 11.39 13.55 11.735 13.685 12.065C13.82 12.38 13.895 12.695 13.895 12.98C13.895 13.34 13.79 13.7 13.58 14.045C13.385 14.39 13.1 14.75 12.74 15.11L11.6 16.295C11.435 16.46 11.36 16.655 11.36 16.895C11.36 17.015 11.375 17.12 11.405 17.24C11.45 17.36 11.495 17.45 11.525 17.54C11.795 18.035 12.26 18.68 12.92 19.46C13.595 20.24 14.315 21.035 15.095 21.83C15.905 22.625 16.685 23.36 17.48 24.035C18.26 24.695 18.905 25.145 19.415 25.415C19.49 25.445 19.58 25.49 19.685 25.535C19.805 25.58 19.925 25.595 20.06 25.595C20.315 25.595 20.51 25.505 20.675 25.34L21.815 24.215C22.19 23.84 22.55 23.555 22.895 23.375C23.24 23.165 23.585 23.06 23.96 23.06C24.245 23.06 24.545 23.12 24.875 23.255C25.205 23.39 25.55 23.585 25.925 23.84L30.89 27.365C31.28 27.635 31.55 27.95 31.715 28.325C31.865 28.7 31.955 29.075 31.955 29.495Z" stroke="#8C8C8C" stroke-width="1.8" stroke-miterlimit="10"/>
<path d="M26.75 15.5C26.75 14.6 26.045 13.22 24.995 12.095C24.035 11.06 22.76 10.25 21.5 10.25" stroke="#8C8C8C" stroke-width="1.8" stroke-linecap="round" stroke-linejoin="round"/>
<path d="M32 15.5C32 9.695 27.305 5 21.5 5" stroke="#8C8C8C" stroke-width="1.8" stroke-linecap="round" stroke-linejoin="round"/>
</svg>
